<svg width="112" height="99" viewBox="0 0 112 99" fill="none" xmlns="http://www.w3.org/2000/svg">
<path d="M4 65.5V42.5C5.54657 34.3212 7.00046 30.1807 12.5 25H100C106.229 28.9362 107.5 33 107.5 42.5V65.5M4 65.5V95H107.5V65.5M4 65.5C45.9663 81.6457 68.6051 81.6128 107.5 65.5" stroke="white" stroke-width="8"/>
<path d="M54.2322 61.2678C55.2085 62.2441 56.7915 62.2441 57.7678 61.2678L73.6777 45.3579C74.654 44.3816 74.654 42.7986 73.6777 41.8223C72.7014 40.846 71.1184 40.846 70.1421 41.8223L56 55.9645L41.8579 41.8223C40.8816 40.846 39.2986 40.846 38.3223 41.8223C37.346 42.7986 37.346 44.3816 38.3223 45.3579L54.2322 61.2678ZM53.5 -2.31156e-09L53.5 59.5L58.5 59.5L58.5 2.31156e-09L53.5 -2.31156e-09Z" fill="white"/>
</svg>
