<svg width="176" height="43" viewBox="0 0 176 43" fill="none" xmlns="http://www.w3.org/2000/svg">
<g filter="url(#filter0_d_14_57)">
<path d="M26.0904 11.9634C25.9093 11.2923 25.643 10.701 25.2914 10.1896C24.9399 9.66761 24.5084 9.2255 23.997 8.86328C23.4857 8.50107 22.8997 8.2294 22.2392 8.04829C21.5787 7.85653 20.8543 7.76065 20.0659 7.76065C18.4786 7.76065 17.1043 8.14417 15.943 8.91122C14.7925 9.67827 13.9029 10.7969 13.2744 12.267C12.6458 13.7266 12.3315 15.5004 12.3315 17.5884C12.3315 19.6871 12.6352 21.4769 13.2424 22.9577C13.8497 24.4386 14.7286 25.5678 15.8791 26.3455C17.0297 27.1232 18.4253 27.5121 20.0659 27.5121C21.5148 27.5121 22.7399 27.2777 23.7413 26.8089C24.7534 26.3295 25.5205 25.6531 26.0425 24.7795C26.5645 23.9059 26.8255 22.8778 26.8255 21.6953L28.2957 21.8711H20.3376V16.1023H34.448V20.4329C34.448 23.3626 33.8248 25.8714 32.5783 27.9595C31.3426 30.0476 29.638 31.6509 27.4647 32.7695C25.3021 33.8881 22.8145 34.4474 20.002 34.4474C16.8805 34.4474 14.1373 33.771 11.7722 32.418C9.40718 31.065 7.56414 29.1367 6.24312 26.6332C4.9221 24.119 4.26159 21.136 4.26159 17.6843C4.26159 14.9996 4.66109 12.6186 5.46009 10.5412C6.2591 8.45312 7.37238 6.68466 8.79994 5.23579C10.2381 3.78693 11.9001 2.68963 13.7857 1.94389C15.682 1.19815 17.7222 0.825283 19.9061 0.825283C21.8024 0.825283 23.5656 1.09695 25.1955 1.64027C26.8362 2.18359 28.285 2.95064 29.5421 3.94141C30.8099 4.93217 31.8379 6.10938 32.6263 7.47301C33.4146 8.83665 33.9047 10.3335 34.0965 11.9634H26.0904ZM45.1787 34H36.6772L47.7195 1.27273H58.2504L69.2927 34H60.7912L53.1048 9.51846H52.8491L45.1787 34ZM44.0441 21.12H61.814V27.1286H44.0441V21.12ZM72.8163 1.27273H82.6121L90.9217 21.5355H91.3053L99.6149 1.27273H109.411V34H101.708V13.897H101.437L93.5744 33.7923H88.6526L80.7904 13.7852H80.5187V34H72.8163V1.27273ZM114.345 34V1.27273H137.164V7.69673H122.255V14.4084H135.998V20.8484H122.255V27.576H137.164V34H114.345ZM150.124 1.27273L156.101 11.6119H156.356L162.397 1.27273H171.25L161.374 17.6364L171.569 34H162.493L156.356 23.549H156.101L149.964 34H140.951L151.099 17.6364L141.207 1.27273H150.124Z" fill="white"/>
</g>
<defs>
<filter id="filter0_d_14_57" x="0.261581" y="0.825283" width="175.308" height="41.6222" filterUnits="userSpaceOnUse" color-interpolation-filters="sRGB">
<feFlood flood-opacity="0" result="BackgroundImageFix"/>
<feColorMatrix in="SourceAlpha" type="matrix" values="0 0 0 0 0 0 0 0 0 0 0 0 0 0 0 0 0 0 127 0" result="hardAlpha"/>
<feOffset dy="4"/>
<feGaussianBlur stdDeviation="2"/>
<feComposite in2="hardAlpha" operator="out"/>
<feColorMatrix type="matrix" values="0 0 0 0 0 0 0 0 0 0 0 0 0 0 0 0 0 0 0.25 0"/>
<feBlend mode="normal" in2="BackgroundImageFix" result="effect1_dropShadow_14_57"/>
<feBlend mode="normal" in="SourceGraphic" in2="effect1_dropShadow_14_57" result="shape"/>
</filter>
</defs>
</svg>
