<svg width="265" height="190" viewBox="0 0 265 190" fill="none" xmlns="http://www.w3.org/2000/svg">
<g clip-path="url(#clip0_23_19)">
<path d="M225.211 42.3887H225.793C227.476 42.3887 228.964 43.1074 229.956 44.2056C254.562 67.6461 267.48 118.54 264.612 152.603C263.814 162.047 261.808 170.353 258.509 176.623C254.756 183.771 249.343 188.463 242.097 189.701C232.867 191.278 221.329 186.765 207.463 173.688C205.673 172.01 203.818 170.313 201.92 168.576C195.45 162.686 188.636 156.477 182.878 148.989H82.1224C76.3428 156.536 69.528 162.746 63.0367 168.636C61.1605 170.353 59.3058 172.03 57.5374 173.688C43.6707 186.765 32.133 191.278 22.9028 189.701C15.6567 188.463 10.2222 183.771 6.49129 176.623C3.19173 170.333 1.18612 162.047 0.388186 152.603C-2.48006 118.381 10.5672 67.1869 35.3678 43.8861C36.4246 42.8878 37.8048 42.3887 39.2065 42.3887V42.3687H39.8104C42.8512 38.4952 46.6252 35.3805 50.8736 33.0244C57.3218 29.4504 64.8267 27.6734 72.2884 27.6734C79.7717 27.6734 87.2766 29.4504 93.7032 33.0244C97.9301 35.3605 101.704 38.4752 104.702 42.3487H121.76C120.445 12.5589 129.395 5.05154 142.614 4.21295C147.402 3.91346 152.47 4.69215 157.775 5.51077C167.803 7.04818 178.888 8.74532 186.759 1.45759C188.873 -0.49911 192.28 -0.49911 194.394 1.45759C196.507 3.4143 196.507 6.56899 194.394 8.52569C182.619 19.4473 168.666 17.3109 156.05 15.3742C151.37 14.6554 146.928 13.9765 143.326 14.1762C136.188 14.6154 131.443 20.1261 132.565 42.3687H160.32C163.339 38.4952 167.135 35.3605 171.362 33.0244C177.81 29.4504 185.315 27.6734 192.755 27.6734C200.195 27.6734 207.7 29.4704 214.148 33.0244C218.396 35.3805 222.192 38.4952 225.211 42.3887Z" fill="#FAF6F6"/>
<path d="M201.424 58.0422C204.918 61.2768 206.665 65.4897 206.665 69.7226C206.665 73.9355 204.918 78.1484 201.424 81.3829L201.403 81.4029C197.909 84.6374 193.359 86.2547 188.808 86.2547C184.258 86.2547 179.707 84.6374 176.214 81.4029L176.192 81.3829C172.699 78.1484 170.952 73.9355 170.952 69.7226C170.952 65.4897 172.699 61.2768 176.192 58.0422C179.664 54.8276 184.236 53.2104 188.808 53.2104C193.359 53.2104 197.909 54.8276 201.403 58.0422H201.424Z" fill="black"/>
<path d="M196.831 62.2951C201.273 66.4081 201.273 73.037 196.831 77.1501C192.388 81.2631 185.228 81.2631 180.786 77.1501C176.343 73.037 176.343 66.4081 180.786 62.2951C185.207 58.2219 192.388 58.2219 196.831 62.2951Z" fill="#FFD54F"/>
<path d="M174.187 79.9454C174.338 80.0851 174.467 80.2249 174.596 80.3646C177.81 83.5393 179.427 87.5925 179.427 91.6257C179.427 95.8386 177.68 100.051 174.187 103.286L174.165 103.306L174.187 103.326C170.693 106.561 166.143 108.178 161.571 108.178C156.999 108.178 152.448 106.561 148.955 103.326C145.461 100.091 143.714 95.8785 143.714 91.6456C143.714 87.4128 145.461 83.1999 148.955 79.9653L148.976 79.9454C149.127 79.8056 149.278 79.6858 149.429 79.546C152.858 76.591 157.214 75.1135 161.571 75.1135C166.121 75.1135 170.671 76.7308 174.165 79.9454H174.187Z" fill="black"/>
<path d="M169.593 84.1982C174.036 88.3113 174.036 94.9401 169.593 99.0532C165.151 103.166 157.991 103.166 153.548 99.0532C149.106 94.9401 149.106 88.3113 153.548 84.1982C157.991 80.1051 165.172 80.1051 169.593 84.1982Z" fill="#2196F3"/>
<path d="M228.64 79.9454C232.134 83.1799 233.881 87.3928 233.881 91.6257C233.881 95.8585 232.134 100.071 228.64 103.306C225.146 106.541 220.596 108.158 216.024 108.158C211.474 108.158 206.923 106.541 203.43 103.306L203.408 103.286L203.387 103.306C199.893 100.071 198.146 95.8585 198.146 91.6257C198.146 87.3928 199.893 83.1799 203.387 79.9454C206.88 76.7108 211.431 75.0935 216.003 75.0935C220.575 75.0935 225.146 76.7308 228.64 79.9454Z" fill="black"/>
<path d="M224.047 84.1982C228.489 88.3113 228.489 94.9401 224.047 99.0532C219.604 103.166 212.444 103.166 208.002 99.0532C203.559 94.9401 203.559 88.3113 208.002 84.1982C212.444 80.1051 219.604 80.1051 224.047 84.1982Z" fill="#F44336"/>
<path d="M201.424 103.845C204.918 107.08 206.665 111.293 206.665 115.525C206.665 119.738 204.918 123.951 201.424 127.186L201.403 127.206L201.424 127.226C197.931 130.46 193.38 132.078 188.808 132.078C184.236 132.078 179.686 130.46 176.192 127.226C176.041 127.086 175.912 126.946 175.782 126.806C172.569 123.632 170.952 119.579 170.952 115.545C170.952 111.313 172.699 107.1 176.192 103.865C176.343 103.725 176.473 103.606 176.645 103.486C180.074 100.511 184.43 99.0332 188.808 99.0332C193.359 99.0332 197.909 100.65 201.403 103.865H201.424V103.845Z" fill="black"/>
<path d="M196.831 108.098C201.273 112.211 201.273 118.84 196.831 122.953C192.388 127.066 185.228 127.066 180.786 122.953C176.343 118.84 176.343 112.211 180.786 108.098C185.207 104.025 192.388 104.025 196.831 108.098Z" fill="#4CAF50"/>
<path fill-rule="evenodd" clip-rule="evenodd" d="M72.2237 62.5147C78.9954 62.5147 84.5162 67.6461 84.5162 73.8955V87.1931H98.879C105.651 87.1931 111.171 92.3245 111.171 98.574C111.171 104.843 105.629 109.955 98.879 109.955H84.5162V123.252C84.5162 129.522 78.9738 134.633 72.2237 134.633C65.4521 134.633 59.9312 129.502 59.9312 123.252V109.955H45.5684C38.7968 109.955 33.276 104.823 33.276 98.574C33.276 92.3045 38.8184 87.1931 45.5684 87.1931H59.9312V73.8955C59.9312 67.6461 65.4521 62.5147 72.2237 62.5147Z" fill="white"/>
<path fill-rule="evenodd" clip-rule="evenodd" d="M105.586 98.9933L97.7576 106.241V91.7455L105.586 98.9933ZM72.6119 68.4647L80.4403 75.7125H64.7835L72.6119 68.4647ZM39.6594 98.9933L47.4878 106.241V91.7455L39.6594 98.9933ZM72.6119 129.502L80.4403 122.254H64.7835L72.6119 129.502Z" fill="#262626"/>
</g>
<defs>
<clipPath id="clip0_23_19">
<rect width="265" height="190" fill="white"/>
</clipPath>
</defs>
</svg>
