<svg width="180" height="185" viewBox="0 0 180 185" fill="none" xmlns="http://www.w3.org/2000/svg">
<path d="M8 35C13.5079 21.4459 18.2531 15.6987 29 8H76C89.9841 13.0212 93.3382 20.1209 97 35C112.38 78.3482 111.07 102.652 97 146C94.3431 162.349 89.6242 168.864 76 177H29C18.098 170.733 12.7599 165.546 8 146V35Z" stroke="white" stroke-width="15"/>
<path d="M177.596 96.5962C180.135 94.0578 180.135 89.9422 177.596 87.4038L136.23 46.0381C133.692 43.4997 129.576 43.4997 127.038 46.0381C124.5 48.5765 124.5 52.692 127.038 55.2304L163.808 92L127.038 128.77C124.5 131.308 124.5 135.424 127.038 137.962C129.576 140.5 133.692 140.5 136.23 137.962L177.596 96.5962ZM44 98.5L173 98.5L173 85.5L44 85.5L44 98.5Z" fill="white"/>
</svg>
